<mxfile host="app.diagrams.net" modified="2023-12-29T19:25:52.403Z" agent="Mozilla/5.0 (X11; Linux x86_64; rv:121.0) Gecko/20100101 Firefox/121.0" etag="w45Cc3YdquprveAeZGvs" version="22.1.16" type="device">
  <diagram name="Page-1" id="qypDoqaTYXkFfFxVMEL3">
    <mxGraphModel dx="1434" dy="716" grid="1" gridSize="10" guides="1" tooltips="1" connect="1" arrows="1" fold="1" page="1" pageScale="1" pageWidth="850" pageHeight="1100" math="0" shadow="0">
      <root>
        <mxCell id="0" />
        <mxCell id="1" parent="0" />
        <mxCell id="cQPZvRCQ1q1_JVAEE-wC-20" style="edgeStyle=orthogonalEdgeStyle;rounded=0;orthogonalLoop=1;jettySize=auto;html=1;entryX=0.5;entryY=1;entryDx=0;entryDy=0;strokeColor=#E07A5F;fontColor=#393C56;fillColor=#F2CC8F;" parent="1" source="cQPZvRCQ1q1_JVAEE-wC-2" target="cQPZvRCQ1q1_JVAEE-wC-19" edge="1">
          <mxGeometry relative="1" as="geometry" />
        </mxCell>
        <mxCell id="cQPZvRCQ1q1_JVAEE-wC-2" value="&lt;div&gt;&lt;b&gt;-k&lt;/b&gt;&lt;/div&gt;&lt;div&gt;config file&#39;s path&lt;br&gt;&lt;/div&gt;" style="rounded=0;whiteSpace=wrap;html=1;fillColor=#d5e8d4;strokeColor=#82b366;labelBackgroundColor=none;" parent="1" vertex="1">
          <mxGeometry x="140" y="190" width="110" height="30" as="geometry" />
        </mxCell>
        <mxCell id="cQPZvRCQ1q1_JVAEE-wC-16" style="edgeStyle=orthogonalEdgeStyle;rounded=0;orthogonalLoop=1;jettySize=auto;html=1;entryX=0;entryY=0.5;entryDx=0;entryDy=0;strokeColor=#E07A5F;fontColor=#393C56;fillColor=#F2CC8F;exitX=0.5;exitY=0;exitDx=0;exitDy=0;" parent="1" source="cQPZvRCQ1q1_JVAEE-wC-3" target="cQPZvRCQ1q1_JVAEE-wC-2" edge="1">
          <mxGeometry relative="1" as="geometry" />
        </mxCell>
        <mxCell id="cQPZvRCQ1q1_JVAEE-wC-17" value="&lt;div style=&quot;font-size: 12px;&quot;&gt;&lt;b&gt;-e&lt;/b&gt;&lt;/div&gt;&lt;div&gt;Encrypt&lt;br&gt;&lt;/div&gt;" style="edgeLabel;html=1;align=center;verticalAlign=middle;resizable=0;points=[];fontColor=#393C56;labelBackgroundColor=#D5E8D4;" parent="cQPZvRCQ1q1_JVAEE-wC-16" vertex="1" connectable="0">
          <mxGeometry x="-0.7877" relative="1" as="geometry">
            <mxPoint y="-9" as="offset" />
          </mxGeometry>
        </mxCell>
        <mxCell id="cQPZvRCQ1q1_JVAEE-wC-30" style="edgeStyle=orthogonalEdgeStyle;rounded=0;orthogonalLoop=1;jettySize=auto;html=1;entryX=0;entryY=0.5;entryDx=0;entryDy=0;strokeColor=#E07A5F;fontColor=#393C56;fillColor=#F2CC8F;exitX=0.5;exitY=1;exitDx=0;exitDy=0;" parent="1" source="cQPZvRCQ1q1_JVAEE-wC-3" target="cQPZvRCQ1q1_JVAEE-wC-26" edge="1">
          <mxGeometry relative="1" as="geometry" />
        </mxCell>
        <mxCell id="cQPZvRCQ1q1_JVAEE-wC-31" value="&lt;div style=&quot;font-size: 12px;&quot;&gt;&lt;font style=&quot;font-size: 12px;&quot;&gt;&lt;b&gt;-d&lt;/b&gt;&lt;/font&gt;&lt;/div&gt;&lt;div style=&quot;font-size: 12px;&quot;&gt;&lt;font style=&quot;font-size: 12px;&quot;&gt;Decrypt&lt;br&gt;&lt;/font&gt;&lt;/div&gt;" style="edgeLabel;html=1;align=center;verticalAlign=middle;resizable=0;points=[];fontColor=#393C56;labelBackgroundColor=#D5E8D4;" parent="cQPZvRCQ1q1_JVAEE-wC-30" vertex="1" connectable="0">
          <mxGeometry x="-0.6812" y="-3" relative="1" as="geometry">
            <mxPoint y="1" as="offset" />
          </mxGeometry>
        </mxCell>
        <mxCell id="cQPZvRCQ1q1_JVAEE-wC-3" value="action" style="rhombus;whiteSpace=wrap;html=1;fillColor=#fff2cc;strokeColor=#d6b656;labelBackgroundColor=none;" parent="1" vertex="1">
          <mxGeometry x="40" y="317.5" width="80" height="55" as="geometry" />
        </mxCell>
        <mxCell id="cQPZvRCQ1q1_JVAEE-wC-10" value="&lt;div&gt;&lt;div align=&quot;left&quot;&gt;&lt;u&gt;&lt;b style=&quot;&quot;&gt;&lt;font style=&quot;font-size: 14px;&quot;&gt;Legend&lt;/font&gt;&lt;/b&gt;&lt;/u&gt;&lt;br&gt;&lt;font color=&quot;#c71313&quot;&gt;Mandatory&lt;/font&gt;&lt;br&gt;&lt;font color=&quot;#12b57f&quot;&gt;Optional&lt;/font&gt;&lt;br&gt;&lt;font color=&quot;#ffff66&quot;&gt;Condition&lt;/font&gt;&lt;br&gt;&lt;font color=&quot;#07bdeb&quot;&gt;Default value&lt;/font&gt;&lt;br&gt;&lt;/div&gt;&lt;br&gt;&lt;/div&gt;" style="text;html=1;whiteSpace=wrap;verticalAlign=middle;overflow=hidden;fillColor=#999999;strokeColor=#36393d;align=left;rounded=0;glass=0;shadow=0;" parent="1" vertex="1">
          <mxGeometry width="140" height="80" as="geometry" />
        </mxCell>
        <mxCell id="cQPZvRCQ1q1_JVAEE-wC-25" style="edgeStyle=orthogonalEdgeStyle;rounded=0;orthogonalLoop=1;jettySize=auto;html=1;entryX=0.5;entryY=1;entryDx=0;entryDy=0;strokeColor=#E07A5F;fontColor=#393C56;fillColor=#F2CC8F;" parent="1" source="cQPZvRCQ1q1_JVAEE-wC-13" target="cQPZvRCQ1q1_JVAEE-wC-24" edge="1">
          <mxGeometry relative="1" as="geometry" />
        </mxCell>
        <mxCell id="cQPZvRCQ1q1_JVAEE-wC-13" value="&lt;div&gt;&lt;b&gt;-o&lt;/b&gt;&lt;/div&gt;&lt;div&gt;key and conf output&lt;br&gt;&lt;/div&gt;" style="rounded=0;whiteSpace=wrap;html=1;fillColor=#d5e8d4;strokeColor=#82b366;labelBackgroundColor=none;" parent="1" vertex="1">
          <mxGeometry x="360" y="190" width="110" height="30" as="geometry" />
        </mxCell>
        <mxCell id="cQPZvRCQ1q1_JVAEE-wC-15" value="&lt;div&gt;&lt;b&gt;-p&lt;/b&gt;&lt;/div&gt;&lt;div&gt;directory path&lt;br&gt;&lt;/div&gt;" style="rounded=0;whiteSpace=wrap;html=1;fillColor=#f8cecc;strokeColor=#b85450;labelBackgroundColor=none;" parent="1" vertex="1">
          <mxGeometry x="470" y="190" width="110" height="30" as="geometry" />
        </mxCell>
        <mxCell id="cQPZvRCQ1q1_JVAEE-wC-19" value="&lt;div&gt;&lt;b&gt;Default&lt;/b&gt;&lt;/div&gt;&lt;div&gt;Generate new key&lt;br&gt;&lt;/div&gt;" style="rounded=1;whiteSpace=wrap;html=1;strokeColor=#6c8ebf;fillColor=#dae8fc;" parent="1" vertex="1">
          <mxGeometry x="140" y="120" width="110" height="40" as="geometry" />
        </mxCell>
        <mxCell id="cQPZvRCQ1q1_JVAEE-wC-23" style="edgeStyle=orthogonalEdgeStyle;rounded=0;orthogonalLoop=1;jettySize=auto;html=1;entryX=0.5;entryY=1;entryDx=0;entryDy=0;strokeColor=#E07A5F;fontColor=#393C56;fillColor=#F2CC8F;" parent="1" source="cQPZvRCQ1q1_JVAEE-wC-21" target="cQPZvRCQ1q1_JVAEE-wC-22" edge="1">
          <mxGeometry relative="1" as="geometry" />
        </mxCell>
        <mxCell id="cQPZvRCQ1q1_JVAEE-wC-21" value="&lt;div&gt;&lt;b&gt;-n&lt;/b&gt;&lt;/div&gt;&lt;div&gt;also rename files&lt;br&gt;&lt;/div&gt;" style="rounded=0;whiteSpace=wrap;html=1;fillColor=#d5e8d4;strokeColor=#82b366;labelBackgroundColor=none;" parent="1" vertex="1">
          <mxGeometry x="250" y="190" width="110" height="30" as="geometry" />
        </mxCell>
        <mxCell id="cQPZvRCQ1q1_JVAEE-wC-22" value="&lt;div&gt;&lt;b&gt;Default&lt;/b&gt;&lt;/div&gt;&lt;div&gt;false&lt;br&gt;&lt;/div&gt;" style="rounded=1;whiteSpace=wrap;html=1;strokeColor=#6c8ebf;fillColor=#dae8fc;" parent="1" vertex="1">
          <mxGeometry x="250" y="120" width="110" height="40" as="geometry" />
        </mxCell>
        <mxCell id="cQPZvRCQ1q1_JVAEE-wC-24" value="&lt;div&gt;&lt;b&gt;Default&lt;/b&gt;&lt;/div&gt;&lt;div&gt;Current directory&lt;br&gt;&lt;/div&gt;" style="rounded=1;whiteSpace=wrap;html=1;strokeColor=#6c8ebf;fillColor=#dae8fc;" parent="1" vertex="1">
          <mxGeometry x="360" y="120" width="110" height="40" as="geometry" />
        </mxCell>
        <mxCell id="cQPZvRCQ1q1_JVAEE-wC-26" value="&lt;div&gt;&lt;b&gt;-k&lt;/b&gt;&lt;/div&gt;&lt;div&gt;config file&#39;s path&lt;b&gt;&lt;br&gt;&lt;/b&gt;&lt;/div&gt;" style="rounded=0;whiteSpace=wrap;html=1;fillColor=#f8cecc;strokeColor=#b85450;labelBackgroundColor=none;" parent="1" vertex="1">
          <mxGeometry x="140" y="470" width="110" height="30" as="geometry" />
        </mxCell>
        <mxCell id="cQPZvRCQ1q1_JVAEE-wC-28" value="&lt;div&gt;&lt;b&gt;-p&lt;/b&gt;&lt;/div&gt;&lt;div&gt;directory path&lt;br&gt;&lt;/div&gt;" style="rounded=0;whiteSpace=wrap;html=1;fillColor=#f8cecc;strokeColor=#b85450;labelBackgroundColor=none;" parent="1" vertex="1">
          <mxGeometry x="250" y="470" width="110" height="30" as="geometry" />
        </mxCell>
      </root>
    </mxGraphModel>
  </diagram>
</mxfile>
